<?xml version="1.0" encoding="UTF-8" standalone="no"?>
<!-- SPDX-License-Identifier: CC-BY-SA-3.0 -->

<svg
   xmlns:dc="http://purl.org/dc/elements/1.1/"
   xmlns:cc="http://creativecommons.org/ns#"
   xmlns:rdf="http://www.w3.org/1999/02/22-rdf-syntax-ns#"
   xmlns:svg="http://www.w3.org/2000/svg"
   xmlns="http://www.w3.org/2000/svg"
   version="1.1"
   id="svg3017"
   height="72"
   width="72">
  <defs
     id="defs3019" />
  <metadata
     id="metadata3022">
    <rdf:RDF>
      <cc:Work
         rdf:about="">
        <dc:format>image/svg+xml</dc:format>
        <dc:type
           rdf:resource="http://purl.org/dc/dcmitype/StillImage" />
        <dc:title></dc:title>
      </cc:Work>
    </rdf:RDF>
  </metadata>
  <g
     transform="translate(-135.08203,-199.08824)"
     id="layer1">
    <text
       transform="translate(260.07679,165.41838)"
       id="text3037"
       y="33.44817"
       x="26.263966"
       style="font-style:normal;font-variant:normal;font-weight:bold;font-stretch:normal;line-height:0%;font-family:'Linux Libertine O';-inkscape-font-specification:'Sans Bold';letter-spacing:0px;word-spacing:0px;fill:#000000;fill-opacity:1;stroke:none"
       xml:space="preserve"><tspan
         style="font-size:72px;line-height:1.25"
         y="33.44817"
         x="26.263966"
         id="tspan3039"> </tspan></text>
    <g
       transform="translate(12.09597,-3.49919)"
       id="text3105"
       style="font-style:normal;font-variant:normal;font-weight:bold;font-stretch:normal;line-height:0%;font-family:'Linux Libertine O';-inkscape-font-specification:'Sans Bold';letter-spacing:0px;word-spacing:0px;fill:#54487a;fill-opacity:1;stroke:none"
       aria-label="Q">
      <path
         id="path852"
         style="font-size:72px;line-height:1.25"
         d="m 157.69006,209.67943 c 7.704,0 13.824,7.56 13.824,22.176 0,12.024 -4.176,19.872 -11.448,19.872 -7.92,0 -14.112,-7.848 -14.112,-21.384 0,-14.688 5.256,-20.664 11.736,-20.664 z m 24.696,20.664 c 0,-14.328 -10.656,-23.688 -23.832,-23.688 -7.272,0 -13.464,3.096 -17.64,8.064 -3.744,4.464 -5.832,10.44 -5.832,17.064 0,13.248 9.72,21.744 20.88,22.896 -4.32,2.304 -8.28,5.688 -10.872,8.784 -0.504,0.504 -0.936,1.008 -1.224,1.584 l 2.808,2.16 c 0.792,-1.152 1.656,-2.232 2.592,-3.24 1.008,-0.72 2.088,-1.008 2.664,-1.008 6.696,0 11.232,7.56 20.592,7.56 4.536,0 7.56,-2.592 10.368,-6.624 l -1.224,-1.584 c -1.584,1.944 -4.176,2.664 -6.264,2.664 -6.336,0 -11.448,-6.624 -19.368,-6.624 -0.144,0 -0.288,0.072 -0.432,0.072 3.168,-2.232 6.12,-3.528 8.136,-4.104 5.04,-0.936 9.288,-3.312 12.456,-6.696 3.96,-4.248 6.192,-10.152 6.192,-17.28 z" />
    </g>
  </g>
</svg>
